<?xml version="1.0" encoding="utf-8"?>
<!-- Generator: Adobe Illustrator 17.1.0, SVG Export Plug-In . SVG Version: 6.00 Build 0)  -->
<!DOCTYPE svg PUBLIC "-//W3C//DTD SVG 1.1//EN" "http://www.w3.org/Graphics/SVG/1.1/DTD/svg11.dtd">
<svg version="1.1" id="Layer_1" xmlns="http://www.w3.org/2000/svg" xmlns:xlink="http://www.w3.org/1999/xlink" x="0px" y="0px"
	 viewBox="0 0 512 512" enable-background="new 0 0 512 512" xml:space="preserve">
<path fill="#FFFFFF" d="M256,0C114.6,0,0,114.6,0,256s114.6,256,256,256s256-114.6,256-256S397.4,0,256,0z M256,464
	c-114.9,0-208-93.1-208-208S141.1,48,256,48s208,93.1,208,208S370.9,464,256,464z M406.6,233.4l-128-128
	c-12.5-12.5-32.8-12.5-45.3,0s-12.5,32.8,0,45.3l73.4,73.4H128c-17.7,0-32,14.3-32,32s14.3,32,32,32h178.7l-73.4,73.4
	c-12.5,12.5-12.5,32.8,0,45.3c6.2,6.2,14.4,9.4,22.6,9.4s16.4-3.1,22.6-9.4l128-128C419.1,266.1,419.1,245.9,406.6,233.4z"/>
</svg>
