<?xml version="1.0" encoding="utf-8"?>
<!-- Generator: Adobe Illustrator 17.1.0, SVG Export Plug-In . SVG Version: 6.00 Build 0)  -->
<!DOCTYPE svg PUBLIC "-//W3C//DTD SVG 1.1//EN" "http://www.w3.org/Graphics/SVG/1.1/DTD/svg11.dtd">
<svg version="1.1" id="Layer_1" xmlns="http://www.w3.org/2000/svg" xmlns:xlink="http://www.w3.org/1999/xlink" x="0px" y="0px"
	 viewBox="0 0 400 200" enable-background="new 0 0 400 200" xml:space="preserve">
<path fill="#FF6666" d="M200,200c-55.2,0-100-44.8-100-100S144.8,0,200,0c55.2,0,100,44.8,100,100S255.2,200,200,200z M200,18.8
	c-44.9,0-81.2,36.4-81.2,81.2s36.3,81.2,81.2,81.2s81.2-36.4,81.2-81.2C281.2,55.2,244.9,18.8,200,18.8z M258.8,108.8l-50,50
	c-4.9,4.9-12.8,4.9-17.7,0c-4.9-4.9-4.9-12.8,0-17.7l28.7-28.6H150c-6.9,0-12.5-5.6-12.5-12.5s5.6-12.5,12.5-12.5h69.8l-28.7-28.7
	c-4.9-4.9-4.9-12.8,0-17.7c2.4-2.4,5.6-3.7,8.8-3.7s6.4,1.2,8.8,3.7l50,50C263.7,96.1,263.7,103.9,258.8,108.8z"/>
</svg>
