<?xml version="1.0" encoding="utf-8"?>
<!-- Generator: Adobe Illustrator 17.1.0, SVG Export Plug-In . SVG Version: 6.00 Build 0)  -->
<!DOCTYPE svg PUBLIC "-//W3C//DTD SVG 1.1//EN" "http://www.w3.org/Graphics/SVG/1.1/DTD/svg11.dtd">
<svg version="1.1" id="Layer_1" xmlns="http://www.w3.org/2000/svg" xmlns:xlink="http://www.w3.org/1999/xlink" x="0px" y="0px"
	 viewBox="100 0 200 200" enable-background="new 100 0 200 200" xml:space="preserve">
<path fill="#FF6666" d="M200,0c55.2,0,100,44.8,100,100s-44.8,100-100,100s-100-44.8-100-100S144.8,0,200,0z M200,181.2
	c44.9,0,81.2-36.4,81.2-81.2S244.9,18.8,200,18.8s-81.2,36.4-81.2,81.2S155.1,181.2,200,181.2z M141.2,91.2l50-50
	c4.9-4.9,12.8-4.9,17.7,0s4.9,12.8,0,17.7l-28.7,28.6H250c6.9,0,12.5,5.6,12.5,12.5s-5.6,12.5-12.5,12.5h-69.8l28.7,28.7
	c4.9,4.9,4.9,12.8,0,17.7c-2.4,2.4-5.6,3.7-8.8,3.7s-6.4-1.2-8.8-3.7l-50-50C136.3,103.9,136.3,96.1,141.2,91.2z"/>
</svg>
