<?xml version="1.0" encoding="utf-8"?>
<!-- Generator: Adobe Illustrator 17.1.0, SVG Export Plug-In . SVG Version: 6.00 Build 0)  -->
<!DOCTYPE svg PUBLIC "-//W3C//DTD SVG 1.1//EN" "http://www.w3.org/Graphics/SVG/1.1/DTD/svg11.dtd">
<svg version="1.1" id="Layer_1" xmlns="http://www.w3.org/2000/svg" xmlns:xlink="http://www.w3.org/1999/xlink" x="0px" y="0px"
	 viewBox="0 0 512 512" enable-background="new 0 0 512 512" xml:space="preserve">
<path fill="#FFFFFF" d="M446.1,193.2c1.2-5.6,1.9-11.3,1.9-17.2c0-44.2-35.8-80-80-80c-7.1,0-14,0.9-20.6,2.7
	C335,60,298.8,32,256,32c-43.7,0-80.5,29.2-92.2,69.1C152.5,97.8,140.4,96,128,96C57.3,96,0,153.3,0,224c0,70.7,57.3,128,128,128h64
	v96h128v-96h112c44.2,0,80-35.8,80-80C512,232.6,483.6,199.9,446.1,193.2z M288,320v96h-64v-96h-80l112-112l112,112H288z"/>
</svg>
