<?xml version="1.0" encoding="utf-8"?>
<!-- Generator: Adobe Illustrator 17.1.0, SVG Export Plug-In . SVG Version: 6.00 Build 0)  -->
<!DOCTYPE svg PUBLIC "-//W3C//DTD SVG 1.1//EN" "http://www.w3.org/Graphics/SVG/1.1/DTD/svg11.dtd">
<svg version="1.1" id="Layer_1" xmlns="http://www.w3.org/2000/svg" xmlns:xlink="http://www.w3.org/1999/xlink" x="0px" y="0px"
	 viewBox="0 0 512 512" enable-background="new 0 0 512 512" xml:space="preserve">
<path fill="#FFFFFF" d="M256,160C151.3,160,58.4,210.3,0,288c58.4,77.7,151.3,128,256,128s197.6-50.3,256-128
	C453.6,210.3,360.7,160,256,160z M224,224c17.7,0,32,14.3,32,32s-14.3,32-32,32s-32-14.3-32-32S206.3,224,224,224z M386.8,352.6
	c-19.8,10.1-40.8,17.9-62.4,23.2c-22.2,5.4-45.3,8.2-68.4,8.2c-23.1,0-46.1-2.7-68.4-8.2c-21.6-5.3-42.6-13.1-62.4-23.2
	c-31.5-16.1-60.1-38.2-83.8-64.6c23.7-26.4,52.3-48.6,83.8-64.6c16.2-8.3,33.1-15,50.5-20c-9.9,15.1-15.7,33.2-15.7,52.7
	c0,53,43,96,96,96s96-43,96-96c0-19.5-5.8-37.5-15.7-52.7c17.4,5,34.4,11.8,50.5,20c31.5,16.1,60.1,38.2,83.8,64.6
	C446.9,314.4,418.3,336.5,386.8,352.6z M430.5,121.9C376.1,94.1,317.4,80,256,80S135.9,94.1,81.5,121.9c-29.4,15-56.9,34-81.5,56
	v54.6c27.7-29.3,60.3-53.9,96.1-72.1C145.9,134.9,199.7,122,256,122s110.1,12.9,159.9,38.4c35.8,18.3,68.4,42.9,96.1,72.1l0-54.6
	C487.3,155.8,459.8,136.9,430.5,121.9z"/>
</svg>
