<?xml version="1.0" encoding="utf-8"?>
<!-- Generator: Adobe Illustrator 17.1.0, SVG Export Plug-In . SVG Version: 6.00 Build 0)  -->
<!DOCTYPE svg PUBLIC "-//W3C//DTD SVG 1.1//EN" "http://www.w3.org/Graphics/SVG/1.1/DTD/svg11.dtd">
<svg version="1.1" id="Layer_1" xmlns="http://www.w3.org/2000/svg" xmlns:xlink="http://www.w3.org/1999/xlink" x="0px" y="0px"
	 viewBox="0 0 512 512" enable-background="new 0 0 512 512" xml:space="preserve">
<path fill="#FFFFFF" d="M496,192H320V16c0-8.8-7.2-16-16-16h-96c-8.8,0-16,7.2-16,16v176H16c-8.8,0-16,7.2-16,16v96
	c0,8.8,7.2,16,16,16h176v176c0,8.8,7.2,16,16,16h96c8.8,0,16-7.2,16-16V320h176c8.8,0,16-7.2,16-16v-96C512,199.2,504.8,192,496,192
	z"/>
</svg>
