<?xml version="1.0" encoding="utf-8"?>
<!-- Generator: Adobe Illustrator 17.1.0, SVG Export Plug-In . SVG Version: 6.00 Build 0)  -->
<!DOCTYPE svg PUBLIC "-//W3C//DTD SVG 1.1//EN" "http://www.w3.org/Graphics/SVG/1.1/DTD/svg11.dtd">
<svg version="1.1" id="Layer_1" xmlns="http://www.w3.org/2000/svg" xmlns:xlink="http://www.w3.org/1999/xlink" x="0px" y="0px"
	 viewBox="0 0 512 512" enable-background="new 0 0 512 512" xml:space="preserve">
<path fill="#FF6666" d="M400,64H112c-26.5,0-48,21.5-48,48v16h384v-16C448,85.5,426.5,64,400,64z M316.2,32l7.1,50.5H188.8l7.1-50.5
	H316.2 M320,0H192c-13.2,0-25.5,10.7-27.3,23.8l-9.4,67c-1.8,13.1,7.5,23.8,20.7,23.8h160c13.2,0,22.5-10.7,20.7-23.8l-9.4-67
	C345.5,10.7,333.2,0,320,0L320,0z M408,160H104c-17.6,0-30.7,14.3-29.1,31.9l26.2,288.3c1.6,17.5,17.3,31.9,34.9,31.9h240
	c17.6,0,33.3-14.3,34.9-31.9l26.2-288.3C438.7,174.3,425.6,160,408,160z M192,448h-48l-16-224h64V448z M288,448h-64V224h64V448z
	 M368,448h-48V224h64L368,448z"/>
</svg>
