<?xml version="1.0" encoding="utf-8"?>
<!-- Generator: Adobe Illustrator 17.1.0, SVG Export Plug-In . SVG Version: 6.00 Build 0)  -->
<!DOCTYPE svg PUBLIC "-//W3C//DTD SVG 1.1//EN" "http://www.w3.org/Graphics/SVG/1.1/DTD/svg11.dtd">
<svg version="1.1" id="Layer_1" xmlns="http://www.w3.org/2000/svg" xmlns:xlink="http://www.w3.org/1999/xlink" x="0px" y="0px"
	 viewBox="0 0 512 512" enable-background="new 0 0 512 512" xml:space="preserve">
<path fill="#FFFFFF" d="M463.9,0H319.6c-26.5,0-63.4,15.3-82.1,34L14,257.5c-18.7,18.7-18.7,49.3,0,68L186.5,498
	c18.7,18.7,49.3,18.7,68,0L478,274.5c18.7-18.7,34-55.7,34-82.1V48.1C512,21.6,490.4,0,463.9,0z M400,160c-26.5,0-48-21.5-48-48
	s21.5-48,48-48s48,21.5,48,48S426.5,160,400,160z"/>
</svg>
