<?xml version="1.0" encoding="utf-8"?>
<!-- Generator: Adobe Illustrator 17.1.0, SVG Export Plug-In . SVG Version: 6.00 Build 0)  -->
<!DOCTYPE svg PUBLIC "-//W3C//DTD SVG 1.1//EN" "http://www.w3.org/Graphics/SVG/1.1/DTD/svg11.dtd">
<svg version="1.1" id="Layer_1" xmlns="http://www.w3.org/2000/svg" xmlns:xlink="http://www.w3.org/1999/xlink" x="0px" y="0px"
	 viewBox="0 0 544 512" enable-background="new 0 0 544 512" xml:space="preserve">
<path fill="#FFFFFF" d="M496,32H384c-26.4,0-63.3,15.3-81.9,33.9L113.9,254.1c-18.7,18.7-18.7,49.2,0,67.9l140.1,140.1
	c18.7,18.7,49.2,18.7,67.9,0l188.1-188.1c18.7-18.7,33.9-55.5,33.9-81.9V80C544,53.6,522.4,32,496,32z M432,192
	c-26.5,0-48-21.5-48-48s21.5-48,48-48s48,21.5,48,48S458.5,192,432,192z M43.3,299.3l171.2,171.2c-18.1,9.6-41.2,6.8-56.4-8.4
	L17.9,321.9c-18.7-18.7-18.7-49.2,0-67.9L206.1,65.9C224.7,47.3,261.6,32,288,32L43.3,276.7C37.1,282.9,37.1,293.1,43.3,299.3z"/>
</svg>
